<?xml version="1.0" encoding="utf-8"?>
<!-- Generator: Adobe Illustrator 27.8.1, SVG Export Plug-In . SVG Version: 6.00 Build 0)  -->
<svg version="1.1" id="Layer_1" xmlns="http://www.w3.org/2000/svg" xmlns:xlink="http://www.w3.org/1999/xlink" x="0px" y="0px"
	 viewBox="0 0 280 150" style="enable-background:new 0 0 280 150;" xml:space="preserve">
<style type="text/css">
	.st0{fill:#AA9767;}
	.st1{fill:#005640;}
</style>
<g>
	<path class="st0" d="M271.6,104.1h-1.9l-0.8,2.2h-1.6l3.5-9.8h2.1l0.4,9.8h-1.6L271.6,104.1z M270.1,102.6h1.4l-0.2-4.3
		L270.1,102.6z"/>
	<g>
		<path class="st0" d="M7.8,103.7L9,96.6h1.6l-1.2,7.3c-0.1,0.7,0.3,1.2,0.9,1.2c0.6,0,1.1-0.4,1.2-1.1l1.2-7.4h1.6l-1.2,7.5
			c-0.3,1.5-1.3,2.5-2.9,2.5C8.6,106.5,7.6,105.1,7.8,103.7z"/>
		<path class="st0" d="M25.7,96.5l-1.6,9.8h-1.4l-1.6-6.5l-1.1,6.5h-1.4l1.6-9.8h1.4l1.6,6.5l1.1-6.5H25.7z"/>
		<path class="st0" d="M31.5,96.5h1.6l-1.6,9.8h-1.6L31.5,96.5z"/>
		<path class="st0" d="M251.5,96.5h1.6l-1.6,9.8h-1.6L251.5,96.5z"/>
		<path class="st0" d="M264,96.5l-1.6,9.8h-1.4l-1.6-6.5l-1.1,6.5h-1.4l1.6-9.8h1.4l1.6,6.5l1.1-6.5H264z"/>
		<path class="st1" d="M142.3,47.5c-1.3,9.8-1.4,19.5-1.3,29.3c-5.3-8.8-8-18.6-7.4-28.9L132,48c-0.3,0-0.6-0.2-0.6-0.4l-3.1,0.1
			c-0.3,0-0.6-0.2-0.5-0.5l2.6-7.5c0.1-0.3,0.4-0.5,0.6-0.5l1.6,0.1c0.1-0.3,0.4-0.5,0.7-0.5l1.6,0.1c2.6-10.3,8.4-20.1,16.5-28.9
			c-3.2,9.7-6.2,19.5-8,29.3l2.3,0.9l21.7-1c0.4,0,0.6-0.2,0.6-0.6l0,0c1.3-7.7,3.1-16.3,4.8-24c0.1-0.4,0-0.7-0.3-1
			c-2.1-2.4-4-5-6.1-7.4c-0.3-0.3-0.6-0.5-1.1-0.5C153,5.1,140.5,4.6,128.1,4c-0.4,0-0.9,0.1-1.2,0.4c-3.1,2.4-6.2,4.8-9.4,7.3
			c-0.4,0.3-0.6,0.7-0.7,1.1c-4.4,21.3-7.8,42.8-10,64.5c-0.1,0.4,0.1,0.8,0.4,1.1c2.3,2.4,4.7,4.9,7,7.3c0.3,0.3,1.1,0.2,1.1,0.2
			h36c0,0,0.9-0.2,1.2-0.5c2.8-2.7,7.2-6.9,10-9.5c0.4-0.3,0.6-1.4,0.6-1.8c0.6-5.4,1.3-10.9,2.1-16.3c0.1-0.6,0.2-1.3,0.3-2
			c0.4-2.5,0.9-5.2,1.2-7.8c0.1-0.6-0.4-1-0.9-1l-21-0.3L142.3,47.5z"/>
		<path class="st0" d="M43.3,96.5l-3.5,9.8h-2.1l-0.4-9.8h1.6l0.3,7.3l2.5-7.3H43.3z"/>
		<path class="st0" d="M50.5,98l-0.4,2.8h2.1l-0.2,1.5h-2.1l-0.4,2.6h2.6l-0.2,1.5h-4.3l1.6-9.8h4.3L53.3,98L50.5,98L50.5,98z"/>
		<path class="st0" d="M64.2,99.1l-0.1,1c-0.1,0.9-0.6,1.6-1.4,2l0.7,4.3h-1.6l-0.6-3.8H61h-1.1l-0.6,3.8h-1.6l1.6-9.8h2.5
			C63.4,96.5,64.4,97.5,64.2,99.1z M61.6,98h-1l-0.5,3h1c0.6,0,1.1-0.4,1.3-1l0.1-0.9C62.7,98.3,62.3,98,61.6,98z"/>
		<path class="st0" d="M68.5,103.6l0.1-0.3h1.6l-0.1,0.3c-0.1,0.9,0.3,1.5,1,1.5c0.9,0,1.1-0.6,1.1-1.4c-0.1-1.9-2.8-2.2-2.8-4.5
			c-0.1-1.7,1.1-2.9,2.8-2.9c1.7,0,2.6,1.4,2.4,2.6l-0.1,0.6H73l0.1-0.5c0.1-0.7-0.1-1.3-0.9-1.3c-0.9,0-1.1,0.6-1.1,1.3
			c0.1,1.7,2.8,2,2.8,4.5c0.1,1.9-1.1,3-2.9,3C69.3,106.5,68.2,105.2,68.5,103.6z"/>
		<path class="st0" d="M80.6,96.5h1.6l-1.6,9.8h-1.6L80.6,96.5z"/>
		<path class="st0" d="M91.9,98H90l-1.3,8.3H87l1.3-8.3h-1.9l0.2-1.5h5.5L91.9,98z"/>
		<path class="st0" d="M99.2,102.8l-0.6,3.4H97l0.6-3.6l-1.2-6.3H98l0.6,4.3l2.1-4.3h1.7L99.2,102.8z"/>
		<path class="st0" d="M112.8,103.7l0.8-4.8c0.3-1.5,1.3-2.5,3-2.5c1.7,0,2.8,1.3,2.5,2.9l-0.8,4.8c-0.3,1.5-1.3,2.5-3,2.5
			S112.6,105.1,112.8,103.7z M116.7,103.9l0.8-4.9c0.1-0.7-0.3-1.2-1-1.2c-0.7,0-1.1,0.4-1.3,1.1l-0.8,5c-0.1,0.7,0.3,1.2,1,1.2
			C116.1,105,116.6,104.6,116.7,103.9z"/>
		<path class="st0" d="M126.1,98l-0.5,3.1h2.2l-0.2,1.5h-2.2l-0.6,3.8h-1.6l1.6-9.8h4.3l-0.2,1.5L126.1,98L126.1,98z"/>
		<path class="st0" d="M146.2,96.5l-1.6,9.8h-1.4l-1.6-6.5l-1.1,6.5h-1.4l1.6-9.8h1.4l1.6,6.5l1.1-6.5H146.2z"/>
		<path class="st0" d="M150.2,103.7l0.8-4.8c0.3-1.5,1.3-2.5,3-2.5s2.8,1.3,2.5,2.9l-0.8,4.8c-0.3,1.5-1.3,2.5-3,2.5
			C151,106.5,150,105.1,150.2,103.7z M154.1,103.9l0.8-4.9c0.1-0.7-0.3-1.2-1-1.2s-1.1,0.4-1.3,1.1l-0.8,5c-0.1,0.7,0.3,1.2,1,1.2
			C153.6,105,154,104.6,154.1,103.9z"/>
		<path class="st0" d="M167.1,99.1l-0.1,1c-0.1,0.9-0.6,1.6-1.4,2l0.7,4.3h-1.6l-0.6-3.8h-0.1h-1.1l-0.6,3.8h-1.6l1.6-9.8h2.5
			C166.3,96.5,167.3,97.5,167.1,99.1z M164.6,98h-1l-0.5,3h1c0.6,0,1.1-0.4,1.3-1l0.1-0.9C165.6,98.3,165.3,98,164.6,98z"/>
		<path class="st0" d="M177.3,98h-1.9l-1.3,8.3h-1.6l1.3-8.3h-1.9l0.2-1.5h5.5L177.3,98z"/>
		<path class="st0" d="M187.8,96.5l-1.6,9.8h-1.6l0.6-4h-2.3l-0.6,4h-1.6l1.6-9.8h1.6l-0.7,4.3h2.3l0.7-4.3H187.8z"/>
		<path class="st0" d="M198.5,103.6l0.8-4.8c0.3-1.5,1.3-2.5,3-2.5c1.8,0,2.8,1.3,2.5,2.9l-0.1,1H203l0.2-1.2c0.1-0.7-0.4-1.2-1-1.2
			c-0.7,0-1.1,0.4-1.3,1.1l-0.8,5c-0.1,0.7,0.3,1.2,1,1.2c0.7,0,1.1-0.4,1.3-1.1l0.2-1.3h1.6L204,104c-0.3,1.5-1.3,2.5-3,2.5
			C199.2,106.5,198.2,105.1,198.5,103.6z"/>
		<path class="st0" d="M212.6,104.1h-1.9l-0.9,2.2h-1.6l3.5-9.8h2.1l0.4,9.8h-1.6L212.6,104.1z M211.1,102.6h1.4l-0.2-4.3
			L211.1,102.6z"/>
		<path class="st0" d="M225.8,99.1l-0.1,1c-0.1,0.9-0.6,1.6-1.4,2l0.7,4.3h-1.6l-0.6-3.8h-0.1h-1.1l-0.6,3.8h-1.6l1.6-9.8h2.5
			C225,96.5,226,97.5,225.8,99.1z M223.2,98h-1l-0.5,3h1c0.6,0,1.1-0.4,1.3-1l0.1-0.9C224.3,98.3,223.9,98,223.2,98z"/>
		<path class="st0" d="M230.3,103.7l0.8-4.8c0.3-1.5,1.3-2.5,3-2.5c1.7,0,2.8,1.3,2.5,2.9l-0.8,4.8c-0.3,1.5-1.3,2.5-3,2.5
			C231,106.5,230,105.1,230.3,103.7z M234.1,103.9l0.8-4.9c0.1-0.7-0.3-1.2-1-1.2s-1.1,0.4-1.3,1.1l-0.8,5c-0.1,0.7,0.3,1.2,1,1.2
			C233.6,105,234.1,104.6,234.1,103.9z"/>
		<path class="st0" d="M245.1,104.9l-0.2,1.5h-4.3l1.6-9.8h1.6l-1.3,8.3L245.1,104.9L245.1,104.9z"/>
		<g>
			<path class="st1" d="M24,140.4c-7.6,0-13.8-5.3-13.8-14c0-7.2,4.2-13.1,11.8-13.1c4.1,0,8.2,1.6,8.4,6.4h1.7l1.4-7.3
				c-2.6-0.2-7-1.2-10.9-1.2c-11.1,0-17.9,7.8-17.9,16.8c0,9.3,7.5,16,17,16c8.7,0,12.4-5.9,12.4-5.9l-0.7-1.1
				C33.6,137.1,29.9,140.4,24,140.4z"/>
			<path class="st1" d="M125.4,138.8l-7-10.2v-0.7c2.4-1.3,6.2-4.3,6.2-8.4c0-4-3.3-7.6-11.9-7.6h-12.3v1.3c3.6,0.7,3.8,1.2,3.8,3.5
				V139c0,1.6-1.3,2.8-3.3,3.1c-1.6-0.2-2.5-0.8-3.6-3.6l-10.7-27l-2.4,0.5l-11.4,27.8c-0.4,0.9-1.1,1.7-2.6,2.1l-4.1-0.4
				c0,0,0.2-1.1,0.2-2.6v-21.3c0-3.9,1.6-5.8,1.6-5.8l-0.2-0.2c0,0-1.3,0.1-6.4,0.1h-3.7v1.3c3.5,0.7,3.5,1.2,3.5,3.5v9.1l-0.5,0.5
				H44.1v-8.6c0-3.9,1.6-5.9,1.6-5.9l-0.2-0.2c0,0-1.3,0.2-6.4,0.2h-3.6v1.3c3.4,0.7,3.4,1.2,3.4,3.5v22.3c0,1.7-1.3,2.9-3.3,3.1
				v1.6l12.4-0.1l0.2-1.4l-4.3-0.4c0,0,0.2-1.1,0.2-2.6V129l0.5-0.5h16.8V139c0,1.6-1.3,2.7-3.4,2.9v1.6l12.4-0.1H79l0.2-1.5
				l-4.1-0.5l3.1-8l0.7-0.5h10.9l2.6,7c0.5,1.4-0.6,1.8-2,1.9v1.7l10.5-0.1l0,0l12.4-0.3l0.1-1.4l-4.3-0.4c0,0,0.2-1,0.2-2.4v-8.9
				l0.5-0.5h2.9l5.8,8.4c2.1,3,2.9,5.2,2.9,5.2l0.2,0.1h8l0.2-1.6l-0.5-0.1C128.3,141.7,127.4,141.6,125.4,138.8z M79.2,130.8l5-13
				c0.2,0.8,0.7,2.2,1.1,3.2l3.7,9.8H79.2z M113.4,127.5h-3.8v-13.1l0.5-0.5h1.6c5.3,0,7.3,3.1,7.3,6.8
				C118.9,125.2,115.9,127.5,113.4,127.5z"/>
			<path class="st1" d="M145.5,141.3H139c0,0,0.2-1.2,0.2-2.6v-21.1c0-3.9,1.6-5.9,1.6-5.9l-0.2-0.2c0,0-1.3,0.2-6.4,0.2h-3.7v1.3
				c3.5,0.7,3.5,1.2,3.5,3.5V139c0,1.7-1.1,2.7-3.3,2.9v1.6c0,0,4.6-0.1,7.5-0.1h14.4l2.1-8.9h-1.7
				C150.5,139.7,149.6,141.3,145.5,141.3z"/>
			<path class="st1" d="M172.6,111.2c-11.7,0-17.9,8.4-17.9,16.8c0,8.4,6.1,16,16.5,16c11.2,0,18-8.7,18-17.5
				C189.3,118.3,183.3,111.2,172.6,111.2z M172.3,141.9c-7.6,0-11.9-8.1-11.9-15.1c0-6.9,4-13.5,11.1-13.5c7.7,0,11.8,7.3,11.8,14.4
				C183.4,134.7,179.4,141.9,172.3,141.9z"/>
			<path class="st1" d="M194.2,111.8c-2,0-3.3-0.3-3.3-0.3l-1.5,8.2h1.7c1.9-4.8,3.3-5.8,6.5-5.8h3.5v25c0,1.7-1.3,2.9-3.3,3.1v1.6
				l12.9-0.3l0.2-1.4l-4.8-0.4c0,0,0.2-1.1,0.2-2.6v-24.4l0.5-0.5h3.3c3.7,0,5.3,1,5.1,5.8h1.8l1.5-8.2c0,0-1.5,0.3-3.5,0.3
				L194.2,111.8L194.2,111.8z"/>
			<path class="st1" d="M224.1,111.8c-2,0-3.3-0.3-3.3-0.3l-1.5,8.2h1.7c1.9-4.8,3.3-5.8,6.5-5.8h3.5v25c0,1.7-1.3,2.9-3.3,3.1v1.6
				l12.9-0.3l0.2-1.4l-4.8-0.4c0,0,0.2-1.1,0.2-2.6v-24.4l0.5-0.5h3.3c3.7,0,5.3,1,5.1,5.8h1.8l1.5-8.2c0,0-1.5,0.3-3.5,0.3
				L224.1,111.8L224.1,111.8z"/>
			<path class="st1" d="M273.3,135.6c-2.4,5-3,5.7-7.2,5.7h-7.2c0,0,0.2-1.3,0.2-2.7v-9.7l0.5-0.5h8v3.6h2.3v-8.6l-1.9,0.3l-0.4,2.7
				h-8.6v-11.9l0.5-0.5h6c3.8,0,5.5,0.9,5.2,5.8h1.7l1.5-8.1c0,0-1.6,0.2-3.6,0.2H250v1.3c3.6,0.7,3.8,1.2,3.8,3.5v22.5
				c0,1.7-1.3,2.7-3.3,2.9v1.6c0,0,4.8-0.1,7.5-0.1h15.1l1.8-7.9L273.3,135.6L273.3,135.6z"/>
		</g>
	</g>
</g>
</svg>
